<?xml version="1.0" encoding="UTF-8" standalone="no"?>
<!-- Created with Inkscape (http://www.inkscape.org/) -->

<svg
   xmlns:dc="http://purl.org/dc/elements/1.1/"
   xmlns:cc="http://creativecommons.org/ns#"
   xmlns:rdf="http://www.w3.org/1999/02/22-rdf-syntax-ns#"
   xmlns:svg="http://www.w3.org/2000/svg"
   xmlns="http://www.w3.org/2000/svg"
   xmlns:sodipodi="http://sodipodi.sourceforge.net/DTD/sodipodi-0.dtd"
   xmlns:inkscape="http://www.inkscape.org/namespaces/inkscape"
   inkscape:export-ydpi="270.26999"
   inkscape:export-xdpi="270.26999"
   inkscape:export-filename="C:\Users\ryne\Expanding Wallet Raster.png"
   sodipodi:docname="Expanding Wallet.svg"
   inkscape:version="0.91 r13725"
   version="1.1"
   id="svg2"
   viewBox="0 0 744.09449 1052.3622"
   height="11.692913in"
   width="8.2677164in">
  <defs
     id="defs4">
    <inkscape:path-effect
       effect="ruler"
       id="path-effect6819"
       is_visible="true"
       unit="in"
       mark_distance="0.25"
       mark_length="0.25"
       minor_mark_length="0.13"
       major_mark_steps="4"
       shift="0"
       offset="0"
       mark_dir="left"
       border_marks="none" />
    <pattern
       inkscape:isstock="true"
       inkscape:stockid="Wavy"
       id="Wavy"
       height="5.1805778"
       width="30.066020"
       patternUnits="userSpaceOnUse"
       inkscape:collect="always">
      <path
         id="path6603"
         d="M 7.597,0.061 C 5.079,-0.187 2.656,0.302 -0.01,1.788 L -0.01,3.061 C 2.773,1.431 5.173,1.052 7.472,1.280 C 9.770,1.508 11.969,2.361 14.253,3.218 C 18.820,4.931 23.804,6.676 30.066,3.061 L 30.062,1.788 C 23.622,5.497 19.246,3.770 14.691,2.061 C 12.413,1.207 10.115,0.311 7.597,0.061 z "
         style="fill:black;stroke:none;" />
    </pattern>
  </defs>
  <sodipodi:namedview
     inkscape:window-maximized="1"
     inkscape:window-y="-8"
     inkscape:window-x="-8"
     inkscape:window-height="1537"
     inkscape:window-width="2560"
     units="in"
     showgrid="true"
     inkscape:current-layer="layer1"
     inkscape:document-units="px"
     inkscape:cy="421.15784"
     inkscape:cx="293.70727"
     inkscape:zoom="1.3151366"
     inkscape:pageshadow="2"
     inkscape:pageopacity="0.0"
     borderopacity="1.0"
     bordercolor="#666666"
     pagecolor="#ffffff"
     id="base">
    <inkscape:grid
       type="xygrid"
       id="grid4279" />
  </sodipodi:namedview>
  <metadata
     id="metadata7">
    <rdf:RDF>
      <cc:Work
         rdf:about="">
        <dc:format>image/svg+xml</dc:format>
        <dc:type
           rdf:resource="http://purl.org/dc/dcmitype/StillImage" />
        <dc:title></dc:title>
      </cc:Work>
    </rdf:RDF>
  </metadata>
  <g
     inkscape:label="Layer 1"
     inkscape:groupmode="layer"
     id="layer1">
    <path
       style="fill:none;fill-rule:evenodd;stroke:#000000;stroke-width:1.21355975px;stroke-linecap:butt;stroke-linejoin:miter;stroke-opacity:1"
       d="m 338.10678,331.7534 c 12.1669,-0.002 22.5,10.20402 22.5,22.50234 l 0,202.5 0,45 0,213.74982 0,22.49983 0,213.75001 -22.5,0 -112.5,-67.5 -90,0 -112.5,67.5 -22.50000013,0 0,-213.75001 0,-22.5 0,-213.75 0,-45 0,-202.5 C 0.60677687,341.95706 10.93988,331.75417 23.10678,331.75478 Z"
       id="path4140"
       inkscape:connector-curvature="0"
       sodipodi:nodetypes="ccccccccccccccccccc" />
    <path
       style="fill:none;fill-rule:evenodd;stroke:#000000;stroke-width:1.0914104;stroke-linecap:butt;stroke-linejoin:miter;stroke-miterlimit:4;stroke-dasharray:1.0914104, 1.0914104;stroke-dashoffset:5.82085514;stroke-opacity:1"
       d="m 349.35678,849.25539 0,202.50001"
       id="path4302"
       inkscape:connector-curvature="0"
       sodipodi:nodetypes="cc" />
    <path
       style="fill:none;fill-rule:evenodd;stroke:#000000;stroke-width:1.0914104;stroke-linecap:butt;stroke-linejoin:miter;stroke-miterlimit:4;stroke-dasharray:1.0914104, 1.0914104;stroke-dashoffset:5.82085514;stroke-opacity:1"
       d="m 12.03678,849.25539 -0.18,202.50001"
       id="path4302-0"
       inkscape:connector-curvature="0"
       sodipodi:nodetypes="cc" />
    <path
       style="fill:none;fill-rule:evenodd;stroke:#000000;stroke-width:1.05677152;stroke-linecap:butt;stroke-linejoin:miter;stroke-miterlimit:4;stroke-dasharray:1.05677152, 1.05677152;stroke-dashoffset:5.9616003;stroke-opacity:1"
       d="m 11.85678,601.75539 0,202.5"
       id="path4302-0-3"
       inkscape:connector-curvature="0"
       sodipodi:nodetypes="cc" />
    <path
       style="fill:none;fill-rule:evenodd;stroke:#000000;stroke-width:1.0914104;stroke-linecap:butt;stroke-linejoin:miter;stroke-miterlimit:4;stroke-dasharray:1.0914104, 1.0914104;stroke-dashoffset:5.82085514;stroke-opacity:1"
       d="m 349.35678,601.75539 0,202.5"
       id="path4302-0-7"
       inkscape:connector-curvature="0"
       sodipodi:nodetypes="cc" />
    <flowRoot
       xml:space="preserve"
       id="flowRoot4358"
       style="font-style:normal;font-variant:normal;font-weight:normal;font-stretch:normal;font-size:30px;line-height:125%;font-family:sans-serif;-inkscape-font-specification:'sans-serif, Normal';text-align:start;letter-spacing:0px;word-spacing:0px;writing-mode:lr-tb;text-anchor:start;fill:#000000;fill-opacity:1;stroke:none;stroke-width:1px;stroke-linecap:butt;stroke-linejoin:miter;stroke-opacity:1"
       transform="translate(-13.597446,143.36077)"><flowRegion
         id="flowRegion4360"><rect
           id="rect4362"
           width="260"
           height="70"
           x="160"
           y="142.36218"
           style="font-style:normal;font-variant:normal;font-weight:normal;font-stretch:normal;font-size:30px;line-height:125%;font-family:sans-serif;-inkscape-font-specification:'sans-serif, Normal';text-align:start;writing-mode:lr-tb;text-anchor:start" /></flowRegion><flowPara
         id="flowPara4364">Shell</flowPara></flowRoot>    <path
       style="fill:none;fill-rule:evenodd;stroke:#000000;stroke-width:0;stroke-linecap:butt;stroke-linejoin:miter;stroke-miterlimit:4;stroke-dasharray:none;stroke-opacity:1"
       d="m 10.60678,826.7554 340,0"
       id="path4398"
       inkscape:connector-curvature="0" />
    <rect
       style="color:#000000;clip-rule:nonzero;display:inline;overflow:visible;visibility:visible;opacity:0.206;isolation:auto;mix-blend-mode:normal;color-interpolation:sRGB;color-interpolation-filters:linearRGB;solid-color:#000000;solid-opacity:1;fill:url(#Wavy);fill-opacity:1.0;fill-rule:evenodd;stroke:none;stroke-width:0.526;stroke-linecap:round;stroke-linejoin:miter;stroke-miterlimit:4;stroke-dasharray:none;stroke-dashoffset:225;stroke-opacity:1;color-rendering:auto;image-rendering:auto;shape-rendering:auto;text-rendering:auto;enable-background:accumulate"
       id="rect4492"
       width="359.47397"
       height="44.473961"
       x="0.86979562"
       y="557.01837" />
    <rect
       style="color:#000000;clip-rule:nonzero;display:inline;overflow:visible;visibility:visible;opacity:0.201;isolation:auto;mix-blend-mode:normal;color-interpolation:sRGB;color-interpolation-filters:linearRGB;solid-color:#000000;solid-opacity:1;fill:url(#Wavy);fill-opacity:1.0;fill-rule:evenodd;stroke:none;stroke-width:0.371;stroke-linecap:round;stroke-linejoin:miter;stroke-miterlimit:4;stroke-dasharray:none;stroke-dashoffset:225;stroke-opacity:1;color-rendering:auto;image-rendering:auto;shape-rendering:auto;text-rendering:auto;enable-background:accumulate"
       id="rect4492-5"
       width="359.62885"
       height="22.128859"
       x="0.79234964"
       y="815.69092" />
    <text
       xml:space="preserve"
       style="font-style:normal;font-variant:normal;font-weight:normal;font-stretch:normal;font-size:20px;line-height:125%;font-family:sans-serif;-inkscape-font-specification:'sans-serif, Normal';text-align:start;letter-spacing:0px;word-spacing:0px;writing-mode:lr-tb;text-anchor:start;fill:#000000;fill-opacity:1;stroke:none;stroke-width:1px;stroke-linecap:butt;stroke-linejoin:miter;stroke-opacity:1;"
       x="164.68008"
       y="832.03357"
       id="text4402"
       sodipodi:linespacing="125%"><tspan
         sodipodi:role="line"
         id="tspan4404"
         x="164.68008"
         y="832.03357">fold</tspan></text>
    <path
       style="fill:none;fill-rule:evenodd;stroke:#000000;stroke-width:1.18175781;stroke-linecap:butt;stroke-linejoin:miter;stroke-miterlimit:4;stroke-dasharray:1.18175781, 1.18175781;stroke-dashoffset:0;stroke-opacity:1"
       d="m 11.85678,556.7554 0,-202.50001 c 0,-5.92788 5.3055,-11.24999 11.24169,-11.24999 l 315.00831,0 c 5.92789,0 11.25,5.32211 11.25,11.24999 l 0,202.5"
       id="path4509"
       inkscape:connector-curvature="0"
       sodipodi:nodetypes="cccccc" />
    <text
       xml:space="preserve"
       style="font-style:normal;font-variant:normal;font-weight:normal;font-stretch:normal;font-size:20px;line-height:125%;font-family:sans-serif;-inkscape-font-specification:'sans-serif, Normal';text-align:start;letter-spacing:0px;word-spacing:0px;writing-mode:lr-tb;text-anchor:start;fill:#000000;fill-opacity:1;stroke:none;stroke-width:1px;stroke-linecap:butt;stroke-linejoin:miter;stroke-opacity:1;"
       x="165.248"
       y="587.63702"
       id="text4402-3"
       sodipodi:linespacing="125%"><tspan
         sodipodi:role="line"
         id="tspan4404-0"
         x="165.248"
         y="587.63702">fold</tspan></text>
    <rect
       style="color:#000000;clip-rule:nonzero;display:inline;overflow:visible;visibility:visible;opacity:1;isolation:auto;mix-blend-mode:normal;color-interpolation:sRGB;color-interpolation-filters:linearRGB;solid-color:#000000;solid-opacity:1;fill:none;fill-opacity:1;fill-rule:evenodd;stroke:#000000;stroke-width:0.98192573;stroke-linecap:butt;stroke-linejoin:miter;stroke-miterlimit:0;stroke-dasharray:none;stroke-dashoffset:0;stroke-opacity:1;color-rendering:auto;image-rendering:auto;shape-rendering:auto;text-rendering:auto;enable-background:accumulate"
       id="rect4562"
       width="44.018074"
       height="201.51808"
       x="458.51501"
       y="836.35315" />
    <path
       style="fill:none;fill-rule:evenodd;stroke:#000000;stroke-width:1.0914104;stroke-linecap:butt;stroke-linejoin:miter;stroke-miterlimit:4;stroke-dasharray:1.0914104, 1.0914104;stroke-dashoffset:5.82085514;stroke-opacity:1"
       d="m 469.27405,835.86216 0,202.49954"
       id="path4302-0-4"
       inkscape:connector-curvature="0"
       sodipodi:nodetypes="cc" />
    <path
       style="fill:none;fill-rule:evenodd;stroke:#000000;stroke-width:1.0914104;stroke-linecap:butt;stroke-linejoin:miter;stroke-miterlimit:4;stroke-dasharray:1.0914104, 1.0914104;stroke-dashoffset:5.82085514;stroke-opacity:1"
       d="m 491.77405,835.86167 0,202.50003"
       id="path4302-0-0"
       inkscape:connector-curvature="0"
       sodipodi:nodetypes="cc" />
    <rect
       style="color:#000000;clip-rule:nonzero;display:inline;overflow:visible;visibility:visible;opacity:1;isolation:auto;mix-blend-mode:normal;color-interpolation:sRGB;color-interpolation-filters:linearRGB;solid-color:#000000;solid-opacity:1;fill:none;fill-opacity:1;fill-rule:evenodd;stroke:#000000;stroke-width:0.98192573;stroke-linecap:butt;stroke-linejoin:miter;stroke-miterlimit:0;stroke-dasharray:none;stroke-dashoffset:0;stroke-opacity:1;color-rendering:auto;image-rendering:auto;shape-rendering:auto;text-rendering:auto;enable-background:accumulate"
       id="rect4562-3"
       width="44.018074"
       height="201.51808"
       x="593.51501"
       y="836.35315" />
    <path
       style="fill:none;fill-rule:evenodd;stroke:#000000;stroke-width:1.0914104;stroke-linecap:butt;stroke-linejoin:miter;stroke-miterlimit:4;stroke-dasharray:1.0914104, 1.0914104;stroke-dashoffset:5.82085514;stroke-opacity:1"
       d="m 604.27405,835.86216 0,202.49954"
       id="path4302-0-4-4"
       inkscape:connector-curvature="0"
       sodipodi:nodetypes="cc" />
    <path
       style="fill:none;fill-rule:evenodd;stroke:#000000;stroke-width:1.0914104;stroke-linecap:butt;stroke-linejoin:miter;stroke-miterlimit:4;stroke-dasharray:1.0914104, 1.0914104;stroke-dashoffset:5.82085514;stroke-opacity:1"
       d="m 626.77405,835.86167 0,202.50003"
       id="path4302-0-0-9"
       inkscape:connector-curvature="0"
       sodipodi:nodetypes="cc" />
    <text
       xml:space="preserve"
       style="font-style:normal;font-variant:normal;font-weight:normal;font-stretch:normal;font-size:30px;line-height:125%;font-family:sans-serif;-inkscape-font-specification:'sans-serif, Normal';text-align:start;letter-spacing:0px;word-spacing:0px;writing-mode:lr-tb;text-anchor:start;fill:#000000;fill-opacity:1;stroke:none;stroke-width:1px;stroke-linecap:butt;stroke-linejoin:miter;stroke-opacity:1"
       x="451.93378"
       y="818.93402"
       id="text4610"
       sodipodi:linespacing="125%"><tspan
         sodipodi:role="line"
         id="tspan4612"
         x="451.93378"
         y="818.93402"
         style="font-style:normal;font-variant:normal;font-weight:normal;font-stretch:normal;font-size:30px;line-height:125%;font-family:sans-serif;-inkscape-font-specification:'sans-serif, Normal';text-align:start;writing-mode:lr-tb;text-anchor:start">Pocket Sides</tspan></text>
    <path
       style="fill:none;fill-rule:evenodd;stroke:#000000;stroke-width:1.21355975px;stroke-linecap:butt;stroke-linejoin:miter;stroke-opacity:1"
       d="m 644.49999,768.1624 c 12.29832,0 22.50434,-10.3331 22.50234,-22.5 l -10e-4,-315 c 6.1e-4,-12.1669 -10.20228,-22.5 -22.50061,-22.5 l -202.50036,-10e-6 -3.6e-4,22.5 67.5,112.50001 0.52031,90 L 442,745.66239 l 0,22.50001 z"
       id="path4140-6"
       inkscape:connector-curvature="0"
       sodipodi:nodetypes="ccccccccccc" />
    <path
       style="fill:none;fill-rule:evenodd;stroke:#000000;stroke-width:1.18175781;stroke-linecap:butt;stroke-linejoin:miter;stroke-miterlimit:4;stroke-dasharray:1.18175781, 1.18175781;stroke-dashoffset:0;stroke-opacity:1"
       d="m 442,419.4124 202.50001,0 c 5.92788,0 11.24999,5.31381 11.24999,11.25 l 0,315 c 0,5.92789 -5.32211,11.25 -11.24999,11.25 l -202.5,0"
       id="path4509-3"
       inkscape:connector-curvature="0"
       sodipodi:nodetypes="cccccc" />
    <text
       xml:space="preserve"
       style="font-style:normal;font-variant:normal;font-weight:normal;font-stretch:normal;font-size:27.5px;line-height:125%;font-family:sans-serif;-inkscape-font-specification:'sans-serif, Normal';text-align:start;letter-spacing:0px;word-spacing:0px;writing-mode:lr-tb;text-anchor:start;fill:#000000;fill-opacity:1;stroke:none;stroke-width:1px;stroke-linecap:butt;stroke-linejoin:miter;stroke-opacity:1"
       x="469.70001"
       y="383.9584"
       id="text4698"
       sodipodi:linespacing="125%"><tspan
         sodipodi:role="line"
         id="tspan4700"
         x="469.70001"
         y="383.9584"
         style="font-style:normal;font-variant:normal;font-weight:normal;font-stretch:normal;font-size:27.5px;line-height:125%;font-family:sans-serif;-inkscape-font-specification:'sans-serif, Normal';text-align:start;writing-mode:lr-tb;text-anchor:start">Top Pocket</tspan></text>
  </g>
  <path
     style="color:#000000;clip-rule:nonzero;display:inline;overflow:visible;visibility:visible;opacity:1;isolation:auto;mix-blend-mode:normal;color-interpolation:sRGB;color-interpolation-filters:linearRGB;solid-color:#000000;solid-opacity:1;fill:#000000;fill-opacity:1;fill-rule:evenodd;stroke:#000000;stroke-width:0.4963544;stroke-linecap:butt;stroke-linejoin:miter;stroke-miterlimit:4;stroke-dasharray:none;stroke-dashoffset:0;stroke-opacity:1;color-rendering:auto;image-rendering:auto;shape-rendering:auto;text-rendering:auto;enable-background:accumulate"
     d="m 402.85913,319.65787 0.42943,0 0,770.30573 -0.42943,0 0,-770.30573 0,-22.5 m 0.42943,44.57057 11.7,0 m -11.7,22.5 11.7,0 m -11.7,22.5 11.7,0 m -11.7,22.5 22.5,0 m -22.5,22.5 11.7,0 m -11.7,22.5 11.7,0 m -11.7,22.5 11.7,0 m -11.7,22.5 22.5,0 m -22.5,22.5 11.7,0 m -11.7,22.5 11.7,0 m -11.7,22.5 11.7,0 m -11.7,22.5 22.5,0 m -22.5,22.5 11.7,0 m -11.7,22.5 11.7,0 m -11.7,22.5 11.7,0 m -11.7,22.5 22.5,0 m -22.5,22.5 11.7,0 m -11.7,22.5 11.7,0 m -11.7,22.5 11.7,0 m -11.7,22.5 22.5,0 m -22.5,22.5 11.7,0 m -11.7,22.5 11.7,0 m -11.7,22.5 11.7,0 m -11.7,22.5 22.5,0 m -22.5,22.5 11.7,0 m -11.7,22.5 11.7,0 m -11.7,22.5 11.7,0 m -11.7,22.5 22.5,0 m -22.5,22.5 11.7,0 m -11.7,22.5 11.7,0 m -11.7,22.49996 11.7,0 m -11.7,22.5 22.5,0 m -22.5,22.5 11.7,0 m -11.7,22.5 11.7,0 m -12.12943,-10.6002 -11.7,0 m 11.7,-22.5 -22.5,0 m 22.5,-22.5 -11.7,0 m 11.7,-22.5 -11.7,0 m 11.7,-22.50001 -11.7,0 m 11.7,-22.5 -22.5,0 m 22.5,-22.5 -11.7,0 m 11.7,-22.5 -11.7,0 m 11.7,-22.5 -11.7,0 m 11.7,-22.5 -22.5,0 m 22.5,-22.5 -11.7,0 m 11.7,-22.5 -11.7,0 m 11.7,-22.5 -11.7,0 m 11.7,-22.5 -22.5,0 m 22.5,-22.5 -11.7,0 m 11.7,-22.5 -11.7,0 m 11.7,-22.5 -11.7,0 m 11.7,-22.5 -22.5,0 m 22.5,-22.5 -11.7,0 m 11.7,-22.5 -11.7,0 m 11.7,-22.5 -11.7,0 m 11.7,-22.5 -22.5,0 m 22.5,-22.5 -11.7,0 m 11.7,-22.5 -11.7,0 m 11.7,-22.5 -11.7,0 m 11.7,-22.5 -22.5,0 m 22.5,-22.5 -11.7,0 m 11.7,-22.5 -11.7,0 m 11.7,-22.5 -11.7,0 m 11.7,-22.5 -22.5,0 m 22.5,-22.5 -11.7,0 m 11.7,-22.5 -11.7,0 m 11.7,-22.5 -11.7,0 m 11.7,-22.5 -22.5,0"
     id="rect6816"
     inkscape:path-effect="#path-effect6819"
     inkscape:original-d="m 402.85913,319.65787 0.42943,0 0,770.30573 -0.42943,0 z"
     inkscape:connector-curvature="0" />
</svg>
